<?xml version="1.0" encoding="UTF-8"?>
<svg id="Layer_1" xmlns="http://www.w3.org/2000/svg" version="1.1" xmlns:xlink="http://www.w3.org/1999/xlink" viewBox="0 0 348 350">
  <!-- Generator: Adobe Illustrator 29.0.0, SVG Export Plug-In . SVG Version: 2.1.0 Build 186)  -->
  <defs>
    <style>
      .st0 {
        fill: #fff;
      }

      .st1 {
        opacity: .88;
      }

      .st2 {
        fill: #f05a2a;
      }

      .st3 {
        fill: url(#linear-gradient);
      }
    </style>
    <linearGradient id="linear-gradient" x1="64.63" y1="164.65" x2="281.47" y2="164.65" gradientUnits="userSpaceOnUse">
      <stop offset=".42" stop-color="#57b847"/>
      <stop offset=".64" stop-color="#38925a"/>
      <stop offset="1" stop-color="#004f7f"/>
    </linearGradient>
  </defs>
  <g class="st1">
    <path class="st3" d="M280.17,273l-108.05.03h-54.03s-27.01.02-27.01.02h-13.51s-6.75,0-6.75,0h-3.38c-.57,0-1.12.01-1.7-.01-.6-.06-1.09-.62-1.07-1.22l-.02-108.05v-54.03s-.01-27.01-.01-27.01v-13.51s0-6.75,0-6.75v-3.38c0-.57-.01-1.11.01-1.7.07-.62.64-1.12,1.26-1.11h108.05s54.03-.02,54.03-.02h27.01s13.51,0,13.51,0h6.75s3.38,0,3.38,0c.57,0,1.11-.01,1.7.01.63.07,1.14.65,1.13,1.28l-.06,108.05-.03,54.03v27.01s-.02,13.51-.02,13.51v6.75s0,3.38,0,3.38c0,.56.01,1.12-.01,1.69-.06.58-.6,1.04-1.17,1.03ZM280.17,272.98c.56,0,1.09-.45,1.15-1.01.02-.56,0-1.12,0-1.69v-3.38s0-6.75,0-6.75v-13.51s-.02-27.01-.02-27.01l-.03-54.03-.06-108.05c0-.51-.4-.98-.91-1.04-.53-.02-1.12,0-1.67-.01h-3.38s-6.75,0-6.75,0h-13.51s-27.01,0-27.01,0h-54.03s-108.05-.02-108.05-.02c-.52,0-1.01.41-1.06.93-.02.54,0,1.12-.01,1.68v3.38s0,6.75,0,6.75v13.51s0,27.01,0,27.01v54.03s-.03,108.05-.03,108.05c0,.54.43,1.04.97,1.1.55.02,1.12,0,1.68.01h3.38s6.75,0,6.75,0h13.51s27.01,0,27.01,0h54.03s108.05.04,108.05.04Z"/>
  </g>
  <g>
    <path class="st2" d="M119.38,166.8c-1.17-28.49,21.41-51.99,49.56-52.32v-.02h29.94c5.92,0,11.6-2.35,15.78-6.54l27.18-27.18h-72.29c-.2,0-.41.01-.61.02-46.8.34-84.49,38.96-83.29,86.11.49,19.27,7.6,36.98,19.11,50.96l24.01-24.01c-5.53-7.7-8.97-16.99-9.39-27.02Z"/>
    <path class="st0" d="M167.51,248.59c47.29,1.12,85.97-36.88,85.97-83.91h-33.71c0,28.39-23.56,51.28-52.19,50.18-8.75-.34-16.93-3-24.01-7.32l-24.19,24.19c13.53,10.17,30.13,16.43,48.14,16.86Z"/>
  </g>
  <path class="st2" d="M170.95,129.68c27.86-1.7,46.48,28.63,32.33,52.81-13.51,23.09-47.2,22.99-60.6-.14-13.13-22.65,2.32-51.09,28.27-52.68ZM171.38,148.12c-.7.16-1.04.71-1.07,1.41l.22,17.13c.5.84,4.47.85,4.98,0l.2-17.33c-.04-1.61-3.24-1.45-4.33-1.2ZM165.22,158.05c.41-.46,1.48-.94,1.68-1.59.13-.44.13-3.06,0-3.51-.74-2.57-4.79,1.53-5.59,2.42-8.13,9.16-2.88,23.79,9.18,25.72,12.74,2.03,22.34-11.2,16.38-22.68-1.56-3-8.92-10.93-7.78-2.35.13.97,1.9,2.17,2.58,3.05,4.23,5.43,2.13,13.55-4.07,16.38-10.84,4.96-20.56-8.29-12.38-17.45Z"/>
</svg>